<?xml version="1.0" encoding="UTF-8"?>
<!DOCTYPE svg PUBLIC "-//W3C//DTD SVG 1.1//EN" "http://www.w3.org/Graphics/SVG/1.1/DTD/svg11.dtd">
<svg xmlns="http://www.w3.org/2000/svg" version="1.1" width="500px" height="500px" style="shape-rendering:geometricPrecision; text-rendering:geometricPrecision; image-rendering:optimizeQuality; fill-rule:evenodd; clip-rule:evenodd" xmlns:xlink="http://www.w3.org/1999/xlink">


<g><path style="opacity:1" fill="#bebac0" d="M 214.5,166.5 C 213.833,166.5 213.5,166.833 213.5,167.5C 206.833,166.167 200.167,166.167 193.5,167.5C 193.158,166.662 192.492,166.328 191.5,166.5C 199.158,163.88 206.824,163.88 214.5,166.5 Z"/></g>
<g><path style="opacity:1" fill="#a29ca4" d="M 319.5,180.5 C 320.485,176.366 320.818,172.032 320.5,167.5C 309.654,167.172 298.987,167.506 288.5,168.5C 279.167,168.5 269.833,168.5 260.5,168.5C 254.833,167.167 249.167,167.167 243.5,168.5C 242.325,168.719 241.325,168.386 240.5,167.5C 267.492,166.5 294.492,166.167 321.5,166.5C 321.828,171.875 321.495,177.208 320.5,182.5C 319.702,182.043 319.369,181.376 319.5,180.5 Z"/></g>
<g><path style="opacity:1" fill="#f6f6f7" d="M 191.5,166.5 C 192.492,166.328 193.158,166.662 193.5,167.5C 176.914,175.636 167.414,188.969 165,207.5C 161.453,228.764 165.453,248.431 177,266.5C 195.271,285.327 213.271,284.993 231,265.5C 244.255,243.042 246.922,219.376 239,194.5C 234.083,181.908 225.583,172.908 213.5,167.5C 213.5,166.833 213.833,166.5 214.5,166.5C 232.218,171.048 244.051,182.048 250,199.5C 250.839,190.78 250.505,182.113 249,173.5C 247.945,170.944 246.112,169.277 243.5,168.5C 249.167,167.167 254.833,167.167 260.5,168.5C 260.167,184.181 260.501,199.848 261.5,215.5C 267.256,211.677 273.589,210.51 280.5,212C 286.643,214.739 292.976,216.905 299.5,218.5C 304.622,218.614 307.955,216.28 309.5,211.5C 310.372,213.466 310.205,215.466 309,217.5C 302.026,224.947 293.86,226.447 284.5,222C 278.545,217.343 271.879,215.01 264.5,215C 263.421,215.956 262.255,216.789 261,217.5C 260.5,237.831 260.333,258.164 260.5,278.5C 274.984,279.081 289.318,277.914 303.5,275C 308.223,273.804 312.557,271.804 316.5,269C 318.202,266.765 319.202,264.265 319.5,261.5C 320.49,267.31 320.823,273.31 320.5,279.5C 293.831,279.667 267.165,279.5 240.5,279C 244.922,278.242 247.755,275.742 249,271.5C 250.537,263.23 250.87,254.897 250,246.5C 239.989,272.423 221.156,283.923 193.5,281C 169.581,272.731 156.415,255.897 154,230.5C 151.079,206.24 159.246,186.74 178.5,172C 182.468,169.289 186.802,167.456 191.5,166.5 Z"/></g>
<g><path style="opacity:1" fill="#f5f5f6" d="M 288.5,168.5 C 298.987,167.506 309.654,167.172 320.5,167.5C 320.818,172.032 320.485,176.366 319.5,180.5C 318.011,176.847 315.344,174.347 311.5,173C 304.039,170.384 296.373,168.884 288.5,168.5 Z"/></g>
<g><path style="opacity:1" fill="#8c8690" d="M 319.5,261.5 C 319.56,260.957 319.893,260.624 320.5,260.5C 321.817,266.988 321.817,273.322 320.5,279.5C 320.823,273.31 320.49,267.31 319.5,261.5 Z"/></g>
<g><path style="opacity:1" fill="#d9d7db" d="M 191.5,293.5 C 199.486,292.998 201.486,296.165 197.5,303C 189.89,303.634 187.89,300.468 191.5,293.5 Z"/></g>
<g><path style="opacity:1" fill="#f8f8f8" d="M 254.5,293.5 C 253.081,294.451 251.415,294.784 249.5,294.5C 249.5,297.167 249.5,299.833 249.5,302.5C 251.167,302.5 252.833,302.5 254.5,302.5C 253.341,303.513 251.341,303.847 248.5,303.5C 248.5,300.167 248.5,296.833 248.5,293.5C 250.5,293.5 252.5,293.5 254.5,293.5 Z"/></g>
<g><path style="opacity:1" fill="#cfccd1" d="M 278.5,293.5 C 280.924,293.192 283.257,293.526 285.5,294.5C 283.833,295.167 282.167,295.833 280.5,296.5C 285.833,297.833 285.833,299.167 280.5,300.5C 282.167,301.167 283.833,301.833 285.5,302.5C 283.257,303.474 280.924,303.808 278.5,303.5C 278.5,300.167 278.5,296.833 278.5,293.5 Z"/></g>
<g><path style="opacity:1" fill="#d1ced2" d="M 310.5,293.5 C 316.697,293.325 317.363,294.325 312.5,296.5C 317.833,297.833 317.833,299.167 312.5,300.5C 317.363,302.675 316.697,303.675 310.5,303.5C 310.5,300.167 310.5,296.833 310.5,293.5 Z"/></g>
<g><path style="opacity:1" fill="#d6d3d7" d="M 324.5,293.5 C 326.924,293.192 329.257,293.526 331.5,294.5C 330.167,296.5 328.833,298.5 327.5,300.5C 328.833,301.167 330.167,301.833 331.5,302.5C 329.167,303.833 326.833,303.833 324.5,302.5C 325.635,300.201 326.968,298.034 328.5,296C 326.563,295.878 325.23,295.045 324.5,293.5 Z"/></g>
<g><path style="opacity:1" fill="#f8f8f8" d="M 345.5,293.5 C 344.081,294.451 342.415,294.784 340.5,294.5C 340.5,297.167 340.5,299.833 340.5,302.5C 342.167,302.5 343.833,302.5 345.5,302.5C 344.341,303.513 342.341,303.847 339.5,303.5C 339.5,300.167 339.5,296.833 339.5,293.5C 341.5,293.5 343.5,293.5 345.5,293.5 Z"/></g>
<g><path style="opacity:1" fill="#e0dee1" d="M 354.5,293.5 C 356.792,293.244 358.959,293.577 361,294.5C 361.684,296.479 361.184,298.146 359.5,299.5C 361.396,304.766 360.563,304.766 357,299.5C 356.781,300.938 356.281,302.271 355.5,303.5C 354.513,300.232 354.18,296.898 354.5,293.5 Z"/></g>
<g><path style="opacity:1" fill="#ecebec" d="M 173.5,293.5 C 175.369,295.635 176.036,298.302 175.5,301.5C 176.833,301.5 178.167,301.5 179.5,301.5C 179.187,298.753 179.52,296.086 180.5,293.5C 181.652,296.106 181.818,298.773 181,301.5C 178.731,304.054 176.398,304.054 174,301.5C 173.503,298.854 173.336,296.187 173.5,293.5 Z"/></g>
<g><path style="opacity:1" fill="#dcd9dd" d="M 207.5,293.5 C 209.388,295.988 210.055,298.988 209.5,302.5C 211.199,302.34 212.866,302.506 214.5,303C 212.19,303.497 209.857,303.663 207.5,303.5C 207.5,300.167 207.5,296.833 207.5,293.5 Z"/></g>
<g><path style="opacity:1" fill="#e2e1e3" d="M 296.5,298.5 C 296.217,297.711 295.717,297.044 295,296.5C 294.503,298.81 294.337,301.143 294.5,303.5C 293.194,300.313 293.194,296.98 294.5,293.5C 296.232,295.283 297.732,297.283 299,299.5C 299.192,297.423 299.692,295.423 300.5,293.5C 301.833,296.833 301.833,300.167 300.5,303.5C 298.929,302.025 297.595,300.358 296.5,298.5 Z"/></g>
<g><path style="opacity:1" fill="#1b1123" d="M 192.5,295.5 C 197.159,295.015 198.492,296.848 196.5,301C 191.728,301.81 190.395,299.977 192.5,295.5 Z"/></g>
<g><path style="opacity:1" fill="#d0ced2" d="M 156.5,293.5 C 164.993,292.471 167.327,295.637 163.5,303C 161.19,303.497 158.857,303.663 156.5,303.5C 156.5,300.167 156.5,296.833 156.5,293.5 Z"/></g>
<g><path style="opacity:1" fill="#23182a" d="M 158.5,295.5 C 163.159,295.015 164.492,296.848 162.5,301C 161.207,301.49 159.873,301.657 158.5,301.5C 158.5,299.5 158.5,297.5 158.5,295.5 Z"/></g>
<g><path style="opacity:1" fill="#dfdde0" d="M 224.5,293.5 C 225.675,293.281 226.675,293.614 227.5,294.5C 229.087,297.521 229.753,300.521 229.5,303.5C 227.167,300.833 224.833,300.833 222.5,303.5C 222.167,303.167 221.833,302.833 221.5,302.5C 222.705,299.55 223.705,296.55 224.5,293.5 Z"/></g>
<g><path style="opacity:1" fill="#312637" d="M 225.5,296.5 C 228.377,298.846 228.044,299.679 224.5,299C 225.252,298.329 225.586,297.496 225.5,296.5 Z"/></g>
<g><path style="opacity:1" fill="#969099" d="M 296.5,298.5 C 295.833,300.167 295.167,301.833 294.5,303.5C 294.337,301.143 294.503,298.81 295,296.5C 295.717,297.044 296.217,297.711 296.5,298.5 Z"/></g>
<g><path style="opacity:1" fill="#524858" d="M 355.5,295.5 C 356.978,295.238 358.311,295.571 359.5,296.5C 358.68,298.111 357.346,298.778 355.5,298.5C 355.5,297.5 355.5,296.5 355.5,295.5 Z"/></g>
<g><path style="opacity:1" fill="#b8b4ba" d="M 254.5,293.5 C 255.043,293.56 255.376,293.893 255.5,294.5C 253.833,295.167 252.167,295.833 250.5,296.5C 255.833,297.833 255.833,299.167 250.5,300.5C 251.949,301.172 253.282,301.839 254.5,302.5C 252.833,302.5 251.167,302.5 249.5,302.5C 249.5,299.833 249.5,297.167 249.5,294.5C 251.415,294.784 253.081,294.451 254.5,293.5 Z"/></g>
<g><path style="opacity:1" fill="#d6d4d7" d="M 263.5,293.5 C 265.527,293.338 267.527,293.505 269.5,294C 270.022,294.561 270.355,295.228 270.5,296C 269.804,298.118 269.637,300.284 270,302.5C 267.959,303.423 265.792,303.756 263.5,303.5C 263.5,300.167 263.5,296.833 263.5,293.5 Z"/></g>
<g><path style="opacity:1" fill="#1c1124" d="M 265.5,295.5 C 266.675,295.281 267.675,295.614 268.5,296.5C 266.948,297.798 265.948,297.465 265.5,295.5 Z"/></g>
<g><path style="opacity:1" fill="#b8b4ba" d="M 345.5,293.5 C 346.043,293.56 346.376,293.893 346.5,294.5C 344.833,295.167 343.167,295.833 341.5,296.5C 346.833,297.833 346.833,299.167 341.5,300.5C 342.949,301.172 344.282,301.839 345.5,302.5C 343.833,302.5 342.167,302.5 340.5,302.5C 340.5,299.833 340.5,297.167 340.5,294.5C 342.415,294.784 344.081,294.451 345.5,293.5 Z"/></g>
<g><path style="opacity:1" fill="#dddbde" d="M 141.5,293.5 C 148.628,293.706 150.294,296.873 146.5,303C 138.408,303.09 136.741,299.923 141.5,293.5 Z"/></g>
<g><path style="opacity:1" fill="#251b2d" d="M 141.5,295.5 C 143.167,295.5 144.833,295.5 146.5,295.5C 146.5,297.5 146.5,299.5 146.5,301.5C 141.074,302.416 139.407,300.416 141.5,295.5 Z"/></g>
</svg>
